<?xml version="1.0" standalone="no"?>
<!DOCTYPE svg PUBLIC "-//W3C//DTD SVG 1.1//EN" "http://www.w3.org/Graphics/SVG/1.1/DTD/svg11.dtd" >
<!--
2013-9-30: Created.
-->
<svg>
    <metadata>
        Created by iconfont
    </metadata>
    <defs>
        <font id="iconfont" horiz-adv-x="1024">
            <font-face
                    font-family="iconfont"
                    font-weight="500"
                    font-stretch="normal"
                    units-per-em="1024"
                    ascent="896"
                    descent="-128"
            />
            <missing-glyph/>

            <glyph glyph-name="moon-fill" unicode="&#59446;"
                   d="M485.546667 809.856a320 320 0 1 1 452.266666-452.266667C924.245333 134.229333 738.816-42.666667 512.042667-42.666667 276.352-42.666667 85.333333 148.352 85.333333 384c0 226.773333 176.896 412.202667 400.213334 425.856z"
                   horiz-adv-x="1024"/>


            <glyph glyph-name="taiyang" unicode="&#59035;"
                   d="M511.951 74.082c16.284 0 29.529-13.001 29.904-29.18l0.008-0.706v-81.31c0-16.506-13.392-29.886-29.912-29.886-16.283 0-29.528 13-29.903 29.18l-0.008 0.706v81.31c0 16.505 13.392 29.886 29.911 29.886z m-219.283 93.56c11.514-11.505 11.679-30.056 0.493-41.761l-0.493-0.505-57.545-57.495c-11.68-11.67-30.62-11.67-42.301 0-11.515 11.505-11.68 30.055-0.494 41.76l0.494 0.505 57.544 57.495c11.681 11.671 30.62 11.671 42.302 0z m484.965 0.492l0.505-0.493 57.545-57.495c11.681-11.67 11.681-30.593 0-42.265-11.515-11.504-30.08-11.669-41.797-0.493l-0.505 0.493-57.544 57.495c-11.682 11.671-11.682 30.594 0 42.265 11.514 11.505 30.08 11.669 41.796 0.493zM511.951 645.787c143.596 0 260.003-116.306 260.003-259.778 0-143.471-116.407-259.778-260.003-259.778-143.595 0-260.003 116.307-260.003 259.778 0 143.472 116.408 259.778 260.003 259.778z m0-59.772c-110.556 0-200.179-89.545-200.179-200.006 0-110.46 89.623-200.006 200.18-200.006 110.555 0 200.179 89.546 200.179 200.006s-89.624 200.006-200.18 200.006z m-336.694-167.07c16.505 0 29.886-13.391 29.886-29.911 0-16.284-13.001-29.529-29.18-29.904l-0.706-0.008h-81.31c-16.506 0-29.886 13.392-29.886 29.912 0 16.284 13 29.528 29.18 29.904l0.706 0.008h81.31z m747.796 0c16.506 0 29.886-13.391 29.886-29.911 0-16.284-13-29.529-29.18-29.904l-0.706-0.008h-81.31c-16.505 0-29.886 13.392-29.886 29.912 0 16.284 13.001 29.528 29.18 29.904l0.706 0.008h81.31zM234.618 708.382l0.505-0.493 57.545-57.495c11.681-11.671 11.681-30.594 0-42.265-11.515-11.505-30.08-11.67-41.797-0.493l-0.505 0.493-57.544 57.494c-11.682 11.672-11.682 30.594 0 42.265 11.514 11.505 30.08 11.67 41.796 0.494z m596.463-0.493c11.515-11.505 11.679-30.055 0.494-41.76l-0.494-0.506-57.544-57.494c-11.682-11.671-30.62-11.671-42.302 0-11.515 11.504-11.679 30.055-0.494 41.76l0.494 0.505 57.544 57.495c11.682 11.67 30.62 11.67 42.302 0zM511.951 832c16.284 0 29.529-13 29.904-29.18l0.008-0.706v-81.31c0-16.505-13.392-29.886-29.912-29.886-16.283 0-29.528 13.001-29.903 29.18l-0.008 0.706v81.31C482.04 818.62 495.432 832 511.95 832z"
                   horiz-adv-x="1024"/>


            <glyph glyph-name="cc-bell-o" unicode="&#58900;"
                   d="M876.584 119.244c-57.068 42.888-89.818 108.39-89.818 179.74l0 149.716c0 125.423-84.509 231.472-199.621 264.101l0 35.332c0 41.279-33.581 74.858-74.858 74.858-41.281 0-74.858-33.579-74.858-74.858l0-35.333c-115.093-32.678-199.621-138.678-199.621-264.101l0-149.716c0-71.35-32.726-136.803-89.823-179.74-8.6-6.433-12.085-17.642-8.699-27.828 3.413-10.184 12.94-17.057 23.664-17.057l227.057 0c-1.634-8.187-2.536-16.521-2.536-24.952 0-68.766 55.998-124.765 124.764-124.765s124.765 55.998 124.765 124.765c0 8.382-0.828 16.765-2.486 24.952l227.06 0c10.722 0 20.227 6.874 23.638 17.057 3.413 10.186-0.099 21.395-8.677 27.828l0.048 0 0 0.001zM487.333 748.133c0 13.768 11.183 24.952 24.952 24.952 13.766 0 24.953-11.186 24.953-24.952l0-26.098c-8.238 0.756-16.522 1.146-24.953 1.146-8.433 0-16.72-0.389-24.952-1.146l0 26.098zM587.143 49.456c0-41.279-33.581-74.858-74.858-74.858-41.281 0-74.857 33.579-74.857 74.858 0 8.528 1.484 16.96 4.286 24.952l141.14 0c2.824-7.992 4.29-16.424 4.29-24.952zM224.935 124.313c12.72 15.403 23.81 32.262 32.873 49.955 19.859 38.842 29.901 80.803 29.901 124.714l0 149.718c0 123.814 100.76 224.575 224.575 224.575 123.788 0 224.575-100.761 224.575-224.575l0-149.717c0-43.911 10.087-85.873 29.922-124.714 9.066-17.791 20.128-34.554 32.849-49.955l-574.695-0.001z"
                   horiz-adv-x="1024"/>


            <glyph glyph-name="tuichu" unicode="&#58885;"
                   d="M768 456.533333l-89.6 89.6c-12.8 12.8-29.866667 12.8-38.4 0-12.8-12.8-12.8-29.866667 0-38.4l89.6-89.6c4.266667-4.266667 4.266667-8.533333 8.533333-12.8h-302.933333c-17.066667 0-25.6-12.8-25.6-25.6s12.8-25.6 25.6-25.6h302.933333c-4.266667-8.533333-8.533333-12.8-12.8-12.8l-89.6-89.6c-12.8-12.8-12.8-29.866667 0-38.4 4.266667-4.266667 12.8-8.533333 21.333334-8.533333s12.8 4.266667 21.333333 8.533333l89.6 85.333334c42.666667 46.933333 42.666667 115.2 0 157.866666zM558.933333 72.533333H358.4c-42.666667 0-76.8 34.133333-76.8 76.8V605.866667c0 42.666667 34.133333 76.8 76.8 76.8h200.533333c17.066667 0 29.866667 12.8 29.866667 25.6s-12.8 25.6-29.866667 25.6H358.4c-34.133333 4.266667-68.266667-8.533333-93.866667-34.133334-25.6-25.6-38.4-55.466667-38.4-93.866666v-456.533334c0-72.533333 59.733333-132.266667 132.266667-132.266666h200.533333c17.066667 0 29.866667 12.8 29.866667 29.866666s-17.066667 25.6-29.866667 25.6z"
                   horiz-adv-x="1024"/>


            <glyph glyph-name="rizhiguanli" unicode="&#58886;"
                   d="M33.860267 194.491733a33.860267 33.860267 0 1 0 0 67.720534h174.762666a33.860267 33.860267 0 1 0 0-67.720534H33.860267z m0 354.440534a33.860267 33.860267 0 1 0 0 67.720533h174.762666a33.860267 33.860267 0 1 0 0-67.720533H33.860267z m931.703466-62.805334a33.860267 33.860267 0 0 0-33.860266 33.860267V744.448c0 43.144533-34.952533 78.097067-78.097067 78.097067h-615.765333c-43.144533 0-78.097067-34.952533-78.097067-78.097067v-71.816533a33.860267 33.860267 0 1 0-67.720533 0V744.448c0 80.554667 65.536 146.090667 145.8176 146.090667h615.765333c80.554667 0 146.090667-65.536 146.090667-146.090667v-224.187733a33.450667 33.450667 0 0 0-9.8304-24.029867 35.498667 35.498667 0 0 0-24.302934-10.103467z m-839.68-202.069333a33.860267 33.860267 0 0 0-33.860266 33.860267V493.499733a33.860267 33.860267 0 1 0 67.720533 0v-175.581866a34.065067 34.065067 0 0 0-33.860267-33.860267z m111.957334-367.0016c-80.554667 0-145.8176 65.536-145.8176 146.090667v75.912533a33.860267 33.860267 0 1 0 67.720533 0v-75.912533c0-43.144533 34.952533-78.097067 78.097067-78.097067h615.765333c43.144533 0 78.097067 34.952533 78.097067 78.097067V291.4304a33.860267 33.860267 0 1 0 67.720533 0v-228.283733a145.8176 145.8176 0 0 0-145.8176-146.090667h-615.765333zM969.9328 458.274133a54.272 54.272 0 1 1-0.068267-108.544 54.272 54.272 0 0 1 0.068267 108.544z m0-176.674133a122.197333 122.197333 0 0 0 0 244.394667 122.402133 122.402133 0 0 0 86.562133-208.622934c-23.210667-22.9376-53.794133-35.771733-86.562133-35.771733zM378.4704 194.491733a33.860267 33.860267 0 1 0 0 67.720534h356.625067a33.860267 33.860267 0 1 0 0-67.720534H378.4704z m0 177.220267a33.860267 33.860267 0 1 0 0 67.720533h356.625067a33.860267 33.860267 0 1 0 0-67.720533H378.4704z m0 177.220267a33.860267 33.860267 0 1 0 0 67.720533h356.625067a33.860267 33.860267 0 1 0 0-67.720533H378.4704z"
                   horiz-adv-x="1092"/>


            <glyph glyph-name="ic_user_zx" unicode="&#58894;"
                   d="M362.645333 356.13866700000005a275.584 275.584 0 1 0 155.52-48.042667c-223.488 0-403.370667-163.498667-403.370666-363.392a35.925333 35.925333 0 0 0-71.893334 0c0 191.061333 133.973333 352.554667 319.744 411.434667z m155.52 23.893333a203.690667 203.690667 0 1 1 0 407.338667 203.690667 203.690667 0 0 1 0-407.381334z m153.045334-361.898667l244.736 205.354667a39.936 39.936 0 1 0 51.370666-61.184l-275.370666-231.04a39.936 39.936 0 0 0-56.277334 4.906667l-114.858666 136.96a39.936 39.936 0 1 0 61.184 51.285333l89.173333-106.282667z"
                   horiz-adv-x="1024"/>


            <glyph glyph-name="jiankong" unicode="&#59311;"
                   d="M815.21 363.093L684.499 190.017l46.79-31.242L862 331.849zM785.306 411.144l0.571-0.279 28.901 43.284-51.026 24.899-453.707 226.207L162 401.877l161.387-78.756 51.72-25.239 188.05-96.568 51.025-24.901 31.528 47.219 2.866 3.819-0.809 0.394 137.539 183.299z m-190.62-162.612L388.901 353.756l-51.72 25.237-99.943 48.771 20.562 42.137 269.669-131.596 24.674 50.563-269.67 131.596 53.461 109.553 396.29-198.186-137.538-183.299zM297.567 198.712h-79.305v79.705H162v-215.672h56.262V142.45H341.629l13.889 56.262 15.223 61.663-51.721 25.238z"
                   horiz-adv-x="1024"/>


            <glyph glyph-name="denglurizhi" unicode="&#59001;"
                   d="M76.778433 819.221567h776.41112v-328.249368h77.209773v345.071609A59.956192 59.956192 0 0 1 872.599832 896H59.956192A59.956192 59.956192 0 0 1 0 836.043808v-898.048863a59.956192 59.956192 0 0 1 59.956192-59.956192H474.473463v75.915754H76.778433zM209.631003 639.352991h513.294018v-81.091828H209.631003zM209.631003 423.251896h389.068239v-81.091829H209.631003zM209.631003 211.464195h278.213984v-81.091828H209.631003zM914.871104 121.314238a163.046335 163.046335 0 1 1-227.747262 0 180.731255 180.731255 0 0 1-122.069082-180.731256c0-68.582982 102.227464-68.582982 243.706824-68.582982h86.267902c59.956192 0 101.364785 3.450716 125.088458 27.605729a57.799495 57.799495 0 0 1 17.68492 43.133951 172.535805 172.535805 0 0 1-122.93176 178.574558zM733.277169 305.496209a94.894693 94.894693 0 0 0 67.288964 28.037068 92.306655 92.306655 0 1 0-67.288964-26.74305z m122.500422-364.913227h-46.584668a862.679023 862.679023 0 0 0-172.535804 10.352149c5.607414 99.639427 92.737995 121.206403 166.065712 121.206402 144.498736 0 164.771693-70.73968 166.497051-125.951137a480.943555 480.943555 0 0 0-113.442291-5.607414z"
                   horiz-adv-x="1038"/>


            <glyph glyph-name="time" unicode="&#59133;"
                   d="M664.5 793.6h-305c-10.5 0-19.1 8.5-19.1 19.1s8.5 19.1 19.1 19.1h305.1c10.5 0 19.1-8.5 19.1-19.1s-8.6-19.1-19.2-19.1zM664.5 278.9h-152.5c-10.5 0-19.1 8.5-19.1 19.1v209.7c0 10.5 8.5 19.1 19.1 19.1s19.1-8.5 19.1-19.1v-190.7h133.5c10.5 0 19.1-8.5 19.1-19.1s-8.6-19-19.2-19zM512 697.8c199.5 0 361.8-162.3 361.8-361.8s-162.3-361.8-361.8-361.8-361.8 162.4-361.8 361.9c0 199.4 162.3 361.7 361.8 361.7M512 736c-220.9 0-399.9-179-399.9-399.9s179-399.9 399.9-399.9c220.9 0 399.9 179 399.9 399.9s-179 399.9-399.9 399.9z"
                   horiz-adv-x="1024"/>


            <glyph glyph-name="zhihing" unicode="&#59414;"
                   d="M221.6 24c-4 0-8 0.8-12 3.2-7.2 4-12 12-12 20.8V720c0 8.8 4.8 16.8 12 20.8s16.8 4 24 0l581.6-336c7.2-4 12-12 12-20.8s-4.8-16.8-12-20.8l-581.6-336c-4-2.4-8-3.2-12-3.2z m24 654.4v-588.8L755.2 384 245.6 678.4z"
                   horiz-adv-x="1024"/>


            <glyph glyph-name="diaodurizhi-copy" unicode="&#60046;"
                   d="M269.844659 814.5692h44.821057v-166.626082h-44.821057zM677.140966 404.280768c52.335426 0 102.092273-19.937769 140.105639-56.13883 38.126482-36.31053 60.461599-85.284073 62.891788-137.900467 2.5056-54.276658-16.27424-106.280032-52.881549-146.431672-36.60731-40.15164-86.65972-63.643469-140.936379-66.150285-3.180653-0.147174-6.401444-0.221369-9.576016-0.221369-52.341508 0-102.102004 19.936552-140.114153 56.136398-38.126482 36.309314-60.461599 85.284073-62.891789 137.902899-2.5056 54.276658 16.27424 106.280032 52.88155 146.431672 36.60731 40.15164 86.65972 63.643469 140.936379 66.149069a208.122961 208.122961 0 0 0 9.576016 0.221369h0.008514m-0.00973 44.822274c-3.859355 0-7.746684-0.088791-11.642528-0.268805-136.951744-6.3236-242.847422-122.470346-236.525038-259.422091 6.143586-133.0559 115.942406-236.793842 247.779562-236.793842 3.859355 0 7.747901 0.088791 11.642529 0.268804 136.951744 6.322384 242.847422 122.470346 236.525037 259.422091-6.143586 133.057117-115.942406 236.798708-247.779562 236.793843zM490.264524 4.8892660000000205a272.361206 272.361206 0 0 0-32.682275 37.369937H180.453104c-20.912034 0-37.927007 17.013757-37.927007 37.92579v590.263526c0 20.912034 17.013757 37.927007 37.927007 37.927007H732.799354c20.912034 0 37.925791-17.013757 37.925791-37.927007V454.84403a268.605238 268.605238 0 0 0 44.821057-21.463023V670.448519c0 45.70045-37.047614 82.746848-82.746848 82.746849H180.453104c-45.70045 0-82.746848-37.047614-82.746848-82.746849v-590.263526c0-45.70045 37.047614-82.746848 82.746848-82.746848h317.980164a273.587248 273.587248 0 0 0-8.168744 7.451121zM770.725145 406.38377a225.243754 225.243754 0 0 0 44.821057-27.231985v0.21407a225.182938 225.182938 0 0 1-44.821057 27.114003v-0.096088zM812.590566 117.469788H646.820768V319.89433299999996h44.821057v-157.604704h120.948741zM209.55091 515.878511h498.255687v-44.821057H209.55091zM600.682445 814.5692h44.821058v-166.626082h-44.821058zM406.842623 183.82563000000005H209.55091v-44.821057h203.864657a272.351476 272.351476 0 0 0-6.572944 44.821057zM450.941192 349.852071H209.55091v-44.821057h217.435038a268.707408 268.707408 0 0 0 23.955244 44.821057z"
                   horiz-adv-x="1024"/>


            <glyph glyph-name="chakan-copy" unicode="&#58884;"
                   d="M512.852 119.731c-55.321 0-112.681 11.325-170.487 33.663-45.814 17.703-92.023 42.333-137.344 73.207-76.95 52.421-124.384 104.293-126.366 106.476l-12.49 13.757 12.49 13.758c1.982 2.183 49.416 54.055 126.365 106.476 45.321 30.874 91.53 55.505 137.343 73.208 57.807 22.338 115.167 33.663 170.488 33.663 55.322 0 112.681-11.326 170.487-33.663 45.814-17.703 92.023-42.333 137.344-73.208 76.949-52.421 124.384-104.293 126.365-106.476l12.49-13.757-12.49-13.757c-1.982-2.183-49.416-54.055-126.365-106.476-45.321-30.874-91.53-55.504-137.344-73.207-57.805-22.339-115.165-33.664-170.486-33.664zM122.429 346.836c18.801-18.469 56.324-52.908 106.476-86.975 66.62-45.254 169.961-99.197 283.947-99.197 114.335 0 217.976 54.255 284.786 99.767 49.879 33.979 86.998 68.061 105.646 86.396-18.802 18.471-56.328 52.914-106.485 86.984-66.621 45.254-169.962 99.197-283.947 99.197-113.986 0-217.327-53.944-283.947-99.197-50.149-34.064-87.671-68.503-106.476-86.975zM512.852 198.312c-81.724 0-148.212 66.626-148.212 148.524s66.487 148.524 148.212 148.524c81.724 0 148.212-66.627 148.212-148.524s-66.487-148.524-148.212-148.524zM512.852 454.427c-59.154 0-107.279-48.265-107.279-107.591s48.125-107.591 107.279-107.591 107.279 48.265 107.279 107.591c0 59.326-48.126 107.591-107.279 107.591z"
                   horiz-adv-x="1024"/>


            <glyph glyph-name="refresh1" unicode="&#58887;"
                   d="M512 52.48a322.987 322.987 0 0 0-269.653 146.347h-85.334A395.947 395.947 0 0 1 512-21.333a400.213 400.213 0 0 1 395.52 368.64h73.813l-108.373 147.2-108.373-147.2h70.4A327.253 327.253 0 0 0 512 52.48z m0 736.853a399.36 399.36 0 0 1-390.4-331.52H42.667L151.04 310.187l108.373 147.626h-64.426a326.827 326.827 0 0 0 317.013 256A322.133 322.133 0 0 0 756.907 600.32l14.08 3.413h73.386A393.813 393.813 0 0 1 512 789.333z"
                   horiz-adv-x="1024"/>


            <glyph glyph-name="user-name" unicode="&#58882;"
                   d="M652.3 333.29999999999995C741.6 382.70000000000005 802 477.8 802 587c0 160.2-129.8 290-290 290-160.2 0-290-129.8-290-290 0-109.2 60.4-204.3 149.7-253.7C184 273.79999999999995 48 98.29999999999995 48-109l58 0c0 224.2 181.8 406 406 406 224.2 0 406-181.8 406-406l58 0C976 98.29999999999995 840 273.79999999999995 652.3 333.29999999999995zM280 587c0 128.1 103.9 232 232 232 128.1 0 232-103.9 232-232 0-128.1-103.9-232-232-232C383.9 355 280 458.9 280 587z"
                   horiz-adv-x="1024"/>


            <glyph glyph-name="querenmima" unicode="&#58890;"
                   d="M236.002113 497.084103c0 51.11072-4.088858 102.22144 0 151.287731C248.268686 795.570707 370.934413 901.881004 520.177715 895.747717 661.243302 889.614431 775.731314 771.037561 777.775743 625.883117v-130.843443c10.222144 0 20.444288-2.044429 28.622003-2.044428 83.82158-2.044429 149.243302-69.510579 149.243302-153.33216v-306.664319c0-87.910438-67.46615-157.421017-157.421017-159.465445-190.131878-2.044429-380.263755-2.044429-572.440062 0-89.954867 0-157.421017 71.555008-157.421017 161.509874 0 91.999296 4.088858 183.998591-2.044429 273.953458-4.088858 96.088153 49.066291 179.909734 169.68759 188.087449zM512-56.956099h257.598028c75.643865 0 118.57687 42.933005 118.57687 118.576869V304.907797c0 79.732723-40.888576 120.621299-120.621299 122.665727h-511.107198c-77.688294 0-118.57687-42.933005-120.621299-118.57687v-247.375884c0-71.555008 44.977433-114.488012 116.532441-114.488012 87.910438-4.088858 173.776447-4.088858 259.642457-4.088857z m-212.620594 551.995773h412.974616v126.754585c0 104.265868-77.688294 190.131878-179.909734 202.398451-104.265868 12.266573-204.442879-55.199577-222.842738-157.421017-12.266573-55.199577-8.177715-112.443584-10.222144-171.732019z m0 0M352.534554 229.263931c14.311002 14.311002 36.799718 14.311002 51.11072 0l96.088153-96.088153c14.311002-14.311002 14.311002-36.799718 0-51.11072s-36.799718-14.311002-51.11072 0l-96.088153 96.088154c-14.311002 14.311002-14.311002 36.799718 0 51.110719z m0 0M671.465446 304.907797c14.311002-14.311002 14.311002-36.799718 0-51.11072l-171.732019-171.732019c-14.311002-14.311002-36.799718-14.311002-51.11072 0s-14.311002 36.799718 0 51.11072l171.732019 171.732019c14.311002 12.266573 36.799718 12.266573 51.11072 0z m0 0"
                   horiz-adv-x="1024"/>

            <glyph glyph-name="password" unicode="&#58883;"
                   d="M780.8 458.479c41.13 0 74.479-33.348 74.479-74.479v-347.546a74.479 74.479 0 0 0-74.479-74.479H234.667a74.479 74.479 0 0 0-74.48 74.48V384c0 41.13 33.349 74.479 74.48 74.479H780.8m0 74.479H234.667A148.958 148.958 0 0 1 85.709 384v-347.546a148.958 148.958 0 0 1 148.958-148.923H780.8a148.958 148.958 0 0 1 148.958 148.923V384A148.958 148.958 0 0 1 780.8 532.9580000000001zM507.733 806.025a173.739 173.739 0 0 0 173.739-173.773v-99.328H334.029v99.328A173.739 173.739 0 0 0 507.767 805.99m0 74.48a248.252 248.252 0 0 1-248.251-248.218v-173.773h496.503V632.2180000000001A248.252 248.252 0 0 1 507.733 880.503z m0-781.961a37.205 37.205 0 0 0-37.205 37.24V284.70500000000004a37.205 37.205 0 0 0 74.41 0v-148.958a37.205 37.205 0 0 0-37.205-37.205z"
                   horiz-adv-x="1024"/>

            <glyph glyph-name="skin" unicode="&#59039;"
                   d="M694 743.2a59.72 59.72 0 0 0 45.37-20.87L900.7 534 841 414.63l-38.62 38.62a29.87 29.87 0 0 1-51-21.12v-375.94a29.87 29.87 0 0 0-29.87-29.87H333.17a29.87 29.87 0 0 0-29.87 29.87V432.13a29.86 29.86 0 0 1-51 21.12l-38.63-38.62-89.59 119.48 161.33 188.23a59.71 59.71 0 0 0 45.36 20.86h6.08a89.58 89.58 0 0 0 46.79-13.2q76-46.55 128.74-46.55T641.13 730a89.59 89.59 0 0 0 46.8 13.19H694m0 59.74h-6.07a149.24 149.24 0 0 1-78-22c-50.95-31.2-81.16-37.75-97.54-37.75s-46.59 6.58-97.55 37.82a149.25 149.25 0 0 1-78 22h-6.08a119.31 119.31 0 0 1-90.72-41.73L78.72 573a59.75 59.75 0 0 1-2.43-74.72L165.9 378.8a59.74 59.74 0 0 1 77.66-15.89v-306.7a89.71 89.71 0 0 1 89.61-89.61h388.3a89.71 89.71 0 0 1 89.61 89.61V362.9a59.74 59.74 0 0 1 83.3 25l59.74 119.35a59.74 59.74 0 0 1-8.06 65.6L784.73 761.19A119.31 119.31 0 0 1 694 802.94z m0 0"
                   horiz-adv-x="1024"/>

            <glyph glyph-name="refresh" unicode="&#59056;"
                   d="M1017.576727 326.493091l-87.226182 151.272727c0.256 3.677091 0.558545 7.284364 0.558546 10.961455h-6.842182a46.545455 46.545455 0 0 1-28.392727 21.736727h-0.395637a46.289455 46.289455 0 0 1-8.424727 1.419636h-2.327273a29.137455 29.137455 0 0 1-11.264-1.210181c-1.466182-0.325818-2.955636-0.512-4.398545-1.000728a46.685091 46.685091 0 0 1-8.634182-3.886545l-161.908363-93.626182a46.801455 46.801455 0 0 1 46.731636-81.082182l70.842182 40.96A325.352727 325.352727 0 0 0 217.949091 349.090909H209.454545a46.545455 46.545455 0 1 1-78.08-34.048 417.861818 417.861818 0 0 1 771.048728 23.994182l34.210909-59.345455a46.754909 46.754909 0 1 1 80.942545 46.801455z m-124.951272 382.464a417.838545 417.838545 0 0 1-771.048728-23.994182l-34.210909 59.345455A46.778182 46.778182 0 1 1 6.4 697.483636l87.249455-151.272727C93.393455 542.557091 93.090909 538.949818 93.090909 535.272727h6.842182a46.545455 46.545455 0 0 1 28.369454-21.736727h0.395637A47.104 47.104 0 0 1 137.146182 512h2.327273a29.137455 29.137455 0 0 1 11.264 1.210182c1.466182 0.325818 2.955636 0.512 4.398545 1.000727a46.685091 46.685091 0 0 1 8.634182 3.886546l161.908363 93.626181a46.801455 46.801455 0 0 1-46.731636 81.082182l-70.842182-40.96A325.352727 325.352727 0 0 0 806.050909 674.909091H814.545455a46.545455 46.545455 0 1 1 78.08 34.048z"
                   horiz-adv-x="1024"/>

            <glyph glyph-name="browser" unicode="&#59056;"
                   d="M765.5 70.3C685.2 23.9 597.5 1.9 511 1.9c-176.2 0-347.6 91.4-442.1 255-140.8 243.9-57.3 555.8 186.6 696.6 80.3 46.4 168 68.4 254.5 68.4 64.2 0 127.8-12.3 187.2-35.6l10.4-3.6c-0.1-0.2-0.1-0.3-0.2-0.5 99.4-41.6 186.6-114.7 244.7-215.3 140.8-243.9 57.2-555.8-186.6-696.6z m202.3 368c-49.9 1.8-106.6-7.1-165.3-25.5 28.1-91.4 37.1-174.6 25.8-237.7 75.4 71.1 123.5 164.1 139.5 263.2zM549.1 768.2c-38.6-33.4-82.2-64.6-129.8-92-49.8-28.8-100.9-51.7-151.3-68.6 18-54.4 42.7-110.6 73.4-166.4L656.2 623c-30.5 50.1-67.4 100.4-107.1 145.2zM278.7 913.3c-35.1-20.2-50.9-82-42.4-165.3 3.1-30.4 9.5-62.6 18.3-95.7 47.2 15.9 95.2 37.2 141.5 63.9 44.1 25.5 84.9 54.7 121.1 85.9-69.1 70-143 119.5-203.9 119.5-13.4 0.2-24.7-2.6-34.6-8.3z m85.9-512.4c28.8-47.2 63.2-94.5 100.2-137.2 40.4 39 87.3 75.6 139.2 107.8 46 28.6 93.3 51.9 140.1 70.1-17 46.5-38.8 94-64.7 141.1L364.6 400.9z m263.9-68.8c-49.1-30.5-93.9-65.6-132.3-103 71.2-74 148.4-127.1 211.4-127.1 13.5 0 24.8 2.8 34.7 8.4 35.1 20.2 50.9 82 42.4 165.3-3.9 38.3-12.7 79.3-25.6 121.7-43.9-17-88-38.8-130.6-65.3z m15.2-264c-56.4 20.2-119 64.4-180.1 127.1-37.4-41.9-66.3-85.5-84-127.6 42.2-12.5 86.3-19.3 131.4-19.3 45 0 89.7 6.9 132.7 19.8z m-308 14.8c20.2 49.3 53.2 99.2 96.2 146.7-37.6 43-74 93-107.3 148.2L121.3 260.4c52.1-80.5 127.4-142 214.4-177.5zM98.4 300.8l203 117.2c-32.9 59.7-58.8 119.3-77.6 176.1C163 577.9 104.3 571 51.6 574.6c-13-94 3.1-188.7 46.8-273.8zM62.7 631.9c-1-3.7-1.5-7.4-2.4-11.1 45.5-2.2 96.7 4.3 150 18.4-21.6 80.3-27.9 153.1-17.7 209.7-62-58.4-107.2-132.6-129.9-217z m314.6 323.8c54.6-19.5 115.2-61.8 174.5-121.6 39.5 39.1 71.4 80.3 93 121.1-43.2 13.2-88.5 20.4-134.8 20.4-45-0.1-89.7-7-132.7-19.9zM689 939.5c-24-47.5-60-94.9-105.1-139.4 39.5-44.4 77.7-96.3 112.6-154.1l203.2 117.3C848.3 842.7 774.4 903.7 689 939.5zM922.5 723L719.6 605.8c27.7-50.2 50.5-100.4 68.2-148.9 58.1 18.4 114.7 28.2 166.3 28.2 6.4 0 12.6-0.4 18.8-0.7 4.9 80.3-11.4 162.6-50.4 238.6z"
                   horiz-adv-x="1024"/>

            <glyph glyph-name="admin" unicode="&#58880;"
                   d="M512-119.68A501.12 501.12 0 1 0 1016.32 384 501.76 501.76 0 0 0 512-119.68zM512 818.56A437.12 437.12 0 1 1 952.32 384 437.76 437.76 0 0 1 512 818.56zM739.2 83.84h-448a57.6 57.6 0 0 0-55.68 59.52v30.72a144 144 0 0 0 75.52 128l147.84 51.84a171.52 171.52 0 0 0 113.28 0l144-50.56a144 144 0 0 0 79.36-131.84v-30.72a57.6 57.6 0 0 0-56.32-56.96z m-440.32 64h431.36v26.24a80.64 80.64 0 0 1-39.68 72.96L550.4 295.68a108.16 108.16 0 0 1-71.04 0l-144-50.56a81.28 81.28 0 0 1-36.48-71.68zM512 304.64a186.88 186.88 0 1 0 192 186.88 186.88 186.88 0 0 0-192-186.88zM512 614.4a122.88 122.88 0 1 1 128-122.88A122.88 122.88 0 0 1 512 614.4z"
                   horiz-adv-x="1024"/>


            <glyph glyph-name="ChevronDownCircle" unicode="&#58881;"
                   d="M512 810.666667c235.648 0 426.666667-191.018667 426.666667-426.666667s-191.018667-426.666667-426.666667-426.666667S85.333333 148.352 85.333333 384 276.352 810.666667 512 810.666667z m0-64a362.666667 362.666667 0 1 1 0-725.333334 362.666667 362.666667 0 0 1 0 725.333334zM318.72 470.613333a32 32 0 0 0 45.226667 0L512 322.56l148.053333 148.053333a32 32 0 1 0 45.226667-45.226666l-170.666667-170.666667a32 32 0 0 0-45.226666 0l-170.666667 170.666667a32 32 0 0 0 0 45.226666z"
                   horiz-adv-x="1024"/>


            <glyph glyph-name="Energy-" unicode="&#58930;"
                   d="M680 632c-9.6 0-18.4-1.6-27.2-3.2C625.6 678.4 572.8 712 512 712c-74.4 0-137.6-51.2-155.2-120.8-4 0.8-8 0.8-12.8 0.8-66.4 0-120-45.6-120-112h572c3.2 10.4 4 20.8 4 32 0 66.4-53.6 120-120 120zM790.4 534.4c-9.6 0-18.4 5.6-22.4 14.4-14.4 36-49.6 59.2-88 59.2-7.2 0-14.4-0.8-22.4-2.4-10.4-2.4-21.6 2.4-26.4 12-24 44-69.6 71.2-119.2 71.2-31.2 0-60.8-10.4-84.8-30.4-10.4-8-25.6-6.4-33.6 4s-6.4 25.6 4 33.6c32 25.6 72.8 40 114.4 40 61.6 0 118.4-30.4 152.8-80.8 5.6 0.8 10.4 0.8 16 0.8 57.6 0 110.4-34.4 132.8-88 4.8-12-0.8-26.4-12.8-31.2-4-1.6-7.2-2.4-10.4-2.4zM344 328c-79.2 0-144 64.8-144 144 0 40.8 16.8 79.2 47.2 106.4 9.6 8.8 24.8 8 33.6-1.6s8-24.8-1.6-33.6C259.2 524.8 248 499.2 248 472c0-52.8 43.2-96 96-96 32.8 0 62.4 16.8 80.8 44 6.4 10.4 19.2 13.6 30.4 8.8 18.4-8.8 37.6-12.8 56.8-12.8 28 0 54.4 8 76.8 24 8.8 6.4 20.8 5.6 28.8-1.6 17.6-14.4 40-22.4 62.4-22.4 13.6 0 24-10.4 24-24s-10.4-24-24-24c-28 0-55.2 8-78.4 23.2C574.4 376 544 368 512 368c-20 0-40 3.2-59.2 9.6C425.6 346.4 386.4 328 344 328zM768.8 13.6H256c-44 0-80 36-80 80V480h672.8v-386.4c0-44-36-80-80-80zM768.8-10.4H256c-57.6 0-104 46.4-104 104V480c0 6.4 2.4 12.8 7.2 16.8 4.8 4.8 10.4 7.2 16.8 7.2h672.8c13.6 0 24-10.4 24-24v-386.4c0-57.6-47.2-104-104-104zM200 456l0.8-362.4c0-31.2 24.8-56 56-56h512c31.2 0 56 24.8 56 56V456H200zM259.2-19.2a76.8 76.8 0 1 1 153.6 0 76.8 76.8 0 1 1-153.6 0ZM611.2-19.2a76.8 76.8 0 1 1 153.6 0 76.8 76.8 0 1 1-153.6 0ZM336-120c-56 0-100.8 45.6-100.8 100.8S280 81.6 336 81.6s100.8-45.6 100.8-100.8S391.2-120 336-120z m0 153.6c-29.6 0-52.8-24-52.8-52.8s24-52.8 52.8-52.8c29.6 0 52.8 24 52.8 52.8s-24 52.8-52.8 52.8zM688-120c-56 0-100.8 45.6-100.8 100.8S632 81.6 688 81.6s100.8-45.6 100.8-100.8S743.2-120 688-120z m0 153.6c-29.6 0-52.8-24-52.8-52.8s24-52.8 52.8-52.8 52.8 24 52.8 52.8-24 52.8-52.8 52.8zM344 568c-1.6 0-3.2 0-4.8 0.8-1.6 0-3.2 0.8-4.8 1.6-1.6 0.8-3.2 1.6-4 2.4-1.6 0.8-2.4 1.6-4 3.2-4 3.2-6.4 9.6-6.4 16 0 1.6 0 3.2 0.8 4.8 0 1.6 0.8 3.2 1.6 4.8 0.8 1.6 1.6 2.4 2.4 4 0.8 1.6 1.6 2.4 3.2 4 8.8 8.8 24.8 8.8 33.6 0 4.8-4.8 7.2-10.4 7.2-16.8 0-1.6 0-3.2-0.8-4.8 0-1.6-0.8-3.2-1.6-4.8-0.8-1.6-1.6-3.2-2.4-4-0.8-1.6-1.6-2.4-3.2-4-0.8-0.8-2.4-2.4-4-3.2-1.6-0.8-2.4-1.6-4-2.4-1.6-0.8-3.2-0.8-4.8-1.6H344zM688-120H152c-13.6 0-24 10.4-24 24s10.4 24 24 24h536c13.6 0 24-10.4 24-24s-11.2-24-24-24zM32-120c-6.4 0-12.8 2.4-16.8 7.2-0.8 0.8-2.4 2.4-3.2 4-0.8 1.6-1.6 2.4-2.4 4-0.8 0.8-1.6 2.4-1.6 4s-0.8 3.2-0.8 4.8c0 6.4 2.4 12.8 7.2 16.8 5.6 5.6 13.6 8 21.6 6.4 1.6 0 3.2-0.8 4.8-1.6 1.6-0.8 3.2-1.6 4-2.4 1.6-0.8 2.4-1.6 4-3.2 4.8-4.8 7.2-10.4 7.2-16.8v-4.8c0-1.6-0.8-3.2-1.6-4.8-0.8-1.6-1.6-3.2-2.4-4-0.8-1.6-1.6-2.4-3.2-4-4.8-3.2-11.2-5.6-16.8-5.6z"
                   horiz-adv-x="1024"/>


            <glyph glyph-name="hangzheng" unicode="&#58952;"
                   d="M508 295.33333333999997L48 520.8333333400001c-9.9 4.9-14 16.8-9.2 26.8 4.9 9.9 16.8 14 26.8 9.2l442.3-216.8 432.3 216.7c9.9 5 21.9 1 26.8-8.9 5-9.9 1-21.9-8.9-26.8L508 295.33333333999997zM56.8 518.63333334c-7.4 0-14.5 4.1-18 11.2-4.9 9.9-0.8 21.9 9.2 26.8L508 782.13333334l450-225.6c9.9-5 13.9-17 8.9-26.8s-17-13.9-26.8-8.9L507.8 737.43333334 65.6 520.63333334c-2.9-1.4-5.9-2-8.8-2zM508 115.33333333999997L48 340.83333333999997c-9.9 4.9-14 16.8-9.2 26.8 4.9 9.9 16.8 14 26.8 9.2l442.3-216.8 432.3 216.7c9.9 5 21.9 1 26.8-8.9 5-9.9 1-21.9-8.9-26.8L508 115.33333333999997zM508-64.66666666000003L48 160.83333333999997c-9.9 4.9-14 16.8-9.2 26.8 4.9 9.9 16.8 14 26.8 9.2l442.3-216.8 432.3 216.7c9.9 5 21.9 1 26.8-8.9 5-9.9 1-21.9-8.9-26.8L508-64.66666666000003z"
                   horiz-adv-x="1024"/>


            <glyph glyph-name="jichucanshu" unicode="&#58927;"
                   d="M809.3 708.3H214.7c-14.9 0-27-12.1-27-27v-594.6c0-14.9 12.1-27 27-27h594.6c14.9 0 27 12.1 27 27V681.3c0 14.9-12.1 27-27 27zM364.6 107c0 81.5 66.1 147.6 147.6 147.6S659.8 188.5 659.8 107H364.6z m424.4 0h-44.4c0 8.6-0.5 17.1-1.5 25.4l45.9 32.1-19.7 60-56.1-1.3c-8.3 14.3-18 27.6-29.1 39.7l18.4 53.1-51.1 37-44.6-33.9c-14.9 6.7-30.6 11.9-47 15.4L543.7 388h-63.1l-16.2-53.5c-16.9-3.5-33-9-48.3-16l-44.8 33.7-50.9-37.4 18.7-53c-11-12.2-20.7-25.6-28.9-39.9l-56.1 0.9-19.1-60.1 46-31.7c-0.8-7.9-1.2-15.9-1.2-24H235V507.8h554V107zM440.9 660.5c15.9 0 28.7-12.9 28.7-28.7S456.8 603 440.9 603c-15.9 0-28.7 12.9-28.7 28.7s12.8 28.8 28.7 28.8z m-90.6 0c15.9 0 28.7-12.9 28.7-28.7S366.2 603 350.3 603c-15.9 0-28.7 12.9-28.7 28.7s12.8 28.8 28.7 28.8z m-90.6 0c15.9 0 28.7-12.9 28.7-28.7S275.5 603 259.7 603c-15.9 0-28.7 12.9-28.7 28.7s12.8 28.8 28.7 28.8z"
                   horiz-adv-x="1024"/>


            <glyph glyph-name="jichuxinxi" unicode="&#58908;"
                   d="M512 480.6c53.3 0 96.6-43.3 96.6-96.6s-43.3-96.6-96.6-96.6-96.6 43.3-96.6 96.6 43.3 96.6 96.6 96.6m0 64c-88.7 0-160.6-71.9-160.6-160.6S423.3 223.4 512 223.4 672.6 295.3 672.6 384 600.7 544.6 512 544.6zM531.8-64.3h-39.6c-55.5 0-104.6 35.4-122 88.1l-5.6 16.9c-5 15.1-15.5 27.8-29.5 35.9l-0.6 0.3c-14.2 8.2-30.5 10.9-46 7.7L271 81c-8.7-1.8-17.5-2.7-26.1-2.7-45.3 0-87.9 23.9-111.2 64.3L113.8 177C86 225.1 92.2 285.2 129.1 326.7l11.4 12.8c10.6 11.9 16.4 27.3 16.3 43.5v1.9c0 16.2-5.8 31.7-16.3 43.5L129 441.3C92.2 482.8 86 542.9 113.8 591l19.8 34.3c27.8 48.1 83 72.9 137.3 61.6l16-3.3c15.6-3.2 31.9-0.5 45.9 7.7 0.9 0.5 1.8 1.1 2.7 1.6 13.9 8 24.3 20.7 29.4 35.8l5.2 15.6c17.5 52.7 66.5 88.1 122 88.1h39.6c55.5 0 104.6-35.4 122-88.1l5.2-15.6c5-15.1 15.4-27.8 29.4-35.8 0.9-0.5 1.8-1.1 2.7-1.6 14-8.2 30.3-10.9 45.9-7.7l16 3.3c54.4 11.2 109.6-13.5 137.3-61.6L910 591c27.8-48.1 21.6-108.3-15.3-149.7l-11.5-12.9c-10.5-11.8-16.3-27.2-16.3-43.4v-1.9c-0.1-16.1 5.7-31.6 16.3-43.5l11.4-12.8c36.9-41.5 43.1-101.7 15.3-149.7l-19.8-34.3c-27.8-48.1-83-72.8-137.3-61.6l-17.5 3.6c-15.5 3.2-31.8 0.5-45.9-7.7l-0.7-0.4c-14-8.1-24.5-20.8-29.5-35.9l-5.6-16.9c-17.2-52.8-66.3-88.2-121.8-88.2zM301.3 150c22.6 0 45-6 65.1-17.6l0.5-0.3c27.7-16 48.4-41.3 58.4-71.3l5.6-16.9c8.8-26.5 33.4-44.3 61.3-44.3h39.6c27.9 0 52.5 17.8 61.3 44.3l5.6 16.9c9.9 30 30.7 55.3 58.3 71.2l0.6 0.3c27.7 16 60 21.3 90.9 14.9l17.5-3.6c27.3-5.6 55 6.8 69 30.9l19.8 34.3c13.9 24.1 10.9 54.4-7.7 75.2l-11.4 13c-21.1 23.7-32.7 54.4-32.5 86.3v1.6c0 31.9 11.5 62.5 32.5 86l11.5 12.9c18.5 20.8 21.6 51 7.7 75.2L835 593.3c-13.9 24.1-41.7 36.6-69 30.9l-16-3.3c-31.1-6.4-63.5-1.1-91.2 15.1-0.7 0.4-1.5 0.9-2.2 1.3-27.6 15.8-48.3 41.1-58.3 71.2l-5.2 15.6c-8.8 26.5-33.4 44.3-61.3 44.3h-39.6c-27.9 0-52.5-17.8-61.3-44.3l-5.2-15.6c-10-30.1-30.7-55.4-58.3-71.2-0.7-0.4-1.5-0.9-2.2-1.3-27.7-16.2-60-21.5-91.2-15.1l-16 3.3c-27.3 5.6-55-6.8-69-30.9L169.2 559c-13.9-24.1-10.9-54.4 7.7-75.2l11.5-12.9c21-23.6 32.5-54.1 32.5-86.1v-1.6c0.1-31.9-11.4-62.6-32.5-86.3L177 284.1c-18.5-20.8-21.6-51-7.7-75.2l19.8-34.3c13.9-24.1 41.7-36.6 69-30.9l17.5 3.6c8.4 1.8 17.1 2.7 25.7 2.7z"
                   horiz-adv-x="1024"/>


            <glyph glyph-name="tieluyunshu" unicode="&#59031;"
                   d="M995.555556 365.79555600000003C878.364444 355.555556 554.382222 327.11111100000005 554.382222 327.11111100000005a581.404444 581.404444 0 0 0 5.404445 113.777778 2994.062222 2994.062222 0 0 1 433.208889-47.217778v88.177778c-218.453333 13.368889-405.617778 160.426667-405.617778 160.426667a286.435556 286.435556 0 0 1-222.72 74.524444 205.653333 205.653333 0 0 1-133.973334-59.164444 977.92 977.92 0 0 1-137.102222-181.191112c-46.933333-76.515556-67.128889-159.573333-26.453333-247.751111a398.222222 398.222222 0 0 1 48.071111-77.653333c4.266667-5.12 19.057778-28.444444 25.884444-28.444444a1339.733333 1339.733333 0 0 1-116.337777-84.195556h91.022222s59.448889 44.657778 119.182222 81.351111l122.026667-2.56c-25.884444-19.342222-80.782222-60.871111-121.742222-98.986667h91.022222s170.666667 126.293333 312.888889 155.022223l-14.506667-2.56c282.168889 80.213333 369.777778 85.333333 369.777778 85.333333zM83.057778 384c0 20.48 25.315556 36.977778 56.888889 36.977778s56.888889-16.497778 56.888889-36.977778-25.315556-36.977778-56.888889-36.977778-56.888889 16.497778-56.888889 36.977778z m217.315555 161.28l-113.777777 5.973333s50.915556 79.075556 67.128888 84.195556l70.257778-1.422222z m51.484445 85.333333l98.702222-3.128889v-89.031111l-118.613333 4.835556z m53.191111-210.204444c31.288889 0 56.888889-16.497778 56.888889-36.977778s-25.315556-36.977778-56.888889-36.977778-56.888889 16.497778-56.888889 36.977778 25.315556 36.977778 56.888889 36.977778z m0 0"
                   horiz-adv-x="1024"/>


            <glyph glyph-name="yonghugl" unicode="&#58899;"
                   d="M519.893333 358.82666700000004a229.333333 229.333333 0 1 0 229.333334 229.333333 229.546667 229.546667 0 0 0-229.333334-229.333333z m0 437.333333a208 208 0 1 1 208-208 208.213333 208.213333 0 0 1-208 208zM659.413333 21.33333300000004H146.133333v13.013334 4.48c0 188.586667 169.386667 341.333333 377.813334 341.333333v-21.333333c-194.986667 0-353.92-141.866667-356.266667-317.013334h491.733333zM738.346667 15.360000000000014l-15.146667 15.146667L841.386667 149.33333300000004H519.893333v21.333334h347.093334a10.666667 10.666667 0 0 0 7.466666-18.133334zM866.986667 202.66666699999996H519.893333a10.666667 10.666667 0 0 0-7.466666 18.133333l136.32 136.32 15.146666-15.146667-118.186666-117.973333h321.28z"
                   horiz-adv-x="1024"/>


            <glyph glyph-name="quanxianfenpei" unicode="&#58891;"
                   d="M576 871.104l343.168-198.144a64 64 0 0 0 31.616-62.464l-36.48-328a384 384 0 0 0-208.256-300.16l-165.12-83.648a64 64 0 0 0-57.856 0l-165.12 83.584a384 384 0 0 0-208.32 300.224L73.216 610.56a64 64 0 0 0 31.616 62.464L448 871.104a128 128 0 0 0 128 0z m-88.32-51.648l-7.68-3.776L136.832 617.6l36.48-327.936a320 320 0 0 1 160-242.944l13.504-7.232L512-44.224l165.12 83.648a320 320 0 0 1 171.52 234.88l2.112 15.296 36.48 327.936L544 815.68a64 64 0 0 1-56.32 3.776zM512 704a192 192 0 0 0 32-381.312V256h64a32 32 0 1 0 0-64h-64v-34.048h62.592a32 32 0 0 0 31.488-26.304l0.512-5.76a32 32 0 0 0-26.24-31.488l-5.76-0.512H512a32 32 0 0 0-31.488 26.24l-0.512 5.76V322.624A192 192 0 0 0 512 704z m0-64a128 128 0 1 1 0-256 128 128 0 0 1 0 256z"
                   horiz-adv-x="1024"/>


            <glyph glyph-name="home-outline" unicode="&#59824;"
                   d="M832-64h-192c-17.6 0-32 14.4-32 32V240c0 8.8-7.2 16-16 16h-160c-8.8 0-16-7.2-16-16v-272c0-17.6-14.4-32-32-32H192c-35.2 0-64 28.8-64 64V472c0 17.6 14.4 32 32 32s32-14.4 32-32v-472h160V240c0 44.2 35.8 80 80 80h160c44.2 0 80-35.8 80-80v-240h160V472c0 17.6 14.4 32 32 32s32-14.4 32-32v-472c0-35.2-28.8-64-64-64zM64 352c-8.4 0-16.8 3.4-23.2 9.8-12.2 12.8-11.8 33 1 45.2L467.6 814.8c10.8 11 27 17.2 44.4 17.2h0.2c17.4 0 33.4-6.4 44.2-17.2l425.8-407.6c12.8-12.2 13.2-32.4 1-45.2-12.2-12.8-32.4-13.2-45.2-1L512.6 768h-1.2L86.2 360.8C80 355 72 352 64 352zM513.4 770z m-2.8 0zM800 506c-17.6 0-32 14.4-32 32V736h-32v-106c0-17.6-14.4-32-32-32s-32 14.4-32 32V768c0 17.6 14.4 32 32 32h96c17.6 0 32-14.4 32-32v-230c0-17.6-14.4-32-32-32z"
                   horiz-adv-x="1024"/>


            <glyph glyph-name="history" unicode="&#59218;"
                   d="M512 736c194.410667 0 352-157.589333 352-352S706.410667 32 512 32l-2.538667 0.106667c-91.477333 7.274667-165.738667 38.08-221.44 91.989333L288 53.333333h-64V256H405.333333v-64h-92.842666c46.250667-56.917333 112.490667-88.725333 200.768-96l6.677333 0.106667C675.328 100.309333 800 227.605333 800 384c0 159.061333-128.938667 288-288 288S224 543.061333 224 384h-64c0 194.410667 157.589333 352 352 352zM469.333333 576h64v-160h160v-64H469.333333V576z"
                   horiz-adv-x="1024"/>


            <glyph glyph-name="exit-outline" unicode="&#59820;"
                   d="M560 32H176c-61.8 0-112 50.2-112 112V624c0 61.8 50.2 112 112 112h384c61.8 0 112-50.2 112-112v-80c0-17.6-14.4-32-32-32s-32 14.4-32 32v80c0 26.4-21.6 48-48 48H176c-26.4 0-48-21.6-48-48v-480c0-26.4 21.6-48 48-48h384c26.4 0 48 21.6 48 48v80c0 17.6 14.4 32 32 32s32-14.4 32-32v-80c0-61.8-50.2-112-112-112zM768 192c-8.2 0-16.4 3.2-22.6 9.4-12.4 12.4-12.4 32.8 0 45.2l137.4 137.4-137.4 137.4c-12.4 12.4-12.4 32.8 0 45.2 12.4 12.4 32.8 12.4 45.2 0l160-160c12.4-12.4 12.4-32.8 0-45.2l-160-160c-6.2-6.2-14.4-9.4-22.6-9.4zM928 352H382c-17.6 0-32 14.4-32 32s14.4 32 32 32h546c17.6 0 32-14.4 32-32s-14.4-32-32-32z"
                   horiz-adv-x="1024"/>


            <glyph glyph-name="create-outline" unicode="&#59821;"
                   d="M688-32H208c-61.8 0-112 50.2-112 112V560c0 61.8 50.2 112 112 112h335c17.6 0 32-14.4 32-32s-14.4-32-32-32H208c-26.4 0-48-21.6-48-48v-480c0-26.4 21.6-48 48-48h480c26.4 0 48 21.6 48 48V448c0 17.6 14.4 32 32 32s32-14.4 32-32v-368c0-61.8-50.2-112-112-112zM919.8 789.6c-12 13.2-32.2 14-45.4 2.2-0.4-0.4-0.8-0.6-1-1L848.8 766c-6.2-6.2-6.2-16.4 0-22.6l22.6-22.6c6.2-6.2 16.4-6.2 22.6 0l24.2 24c12.2 12.2 13.4 32 1.6 44.8zM798.6 716L437.6 355.6c-2.2-2.2-3.8-4.8-4.6-7.8l-16.8-49.8c-1.2-4.2 1.2-8.4 5.2-9.8 1.4-0.4 3-0.4 4.4 0l49.8 16.8c3 0.8 5.6 2.4 7.8 4.6L844 670.6c7 7 7 18.4 0 25.4l-20 20c-7 7-18.2 7-25.4 0z"
                   horiz-adv-x="1024"/>


            <glyph glyph-name="power-outline" unicode="&#59822;"
                   d="M512-32c-229.4 0-416 186.6-416 416-0.4 124.2 54.2 241 149.6 320.6 13.6 11.4 33.8 9.4 45-4 11.4-13.6 9.4-33.8-4-45C205.8 588 159.6 489.2 160 384c0-194.2 158-352 352-352s352 158 352 352c0 105.4-46.8 204.4-128.2 271.2-13.6 11.2-15.6 31.4-4.4 45 11.2 13.6 31.4 15.6 45 4.4 96.4-79.2 151.8-196 151.8-320.8C928 154.6 741.4-32 512-32zM512 352c-17.6 0-32 14.4-32 32V768c0 17.6 14.4 32 32 32s32-14.4 32-32v-384c0-17.6-14.4-32-32-32z"
                   horiz-adv-x="1024"/>


            <glyph glyph-name="add-circle-outline" unicode="&#59823;"
                   d="M512-32c-229.4 0-416 186.6-416 416S282.6 800 512 800s416-186.6 416-416-186.6-416-416-416z m0 768c-194 0-352-158-352-352s158-352 352-352 352 158 352 352S706 736 512 736zM512 192c-17.6 0-32 14.4-32 32V544c0 17.6 14.4 32 32 32s32-14.4 32-32v-320c0-17.6-14.4-32-32-32zM672 352H352c-17.6 0-32 14.4-32 32s14.4 32 32 32h320c17.6 0 32-14.4 32-32s-14.4-32-32-32z"
                   horiz-adv-x="1024"/>


            <glyph glyph-name="caozuorizhi" unicode="&#58975;"
                   d="M977.668 483.9l-54.674-53.471-149.736 148.526 54.679 53.474c16.622 16.627 42.773 19.012 57.022 4.76l98.638-96.263c13.087-14.239 10.697-40.386-5.93-57.025l0 0 0 0 0 0 0 0zM747.134 554.015l150.917-147.345-358.875-354.122c-1.191-1.186-5.967-5.948-13.078-7.13-1.177 0-1.177 0-2.386-1.186l-187.751-58.246c-4.755-1.191-10.699-1.191-14.271 2.386-3.556 3.553-4.747 8.316-2.391 14.269l59.432 184.197c0 1.167 0 1.167 1.192 2.372 1.179 5.958 5.941 13.069 8.292 14.269l68.933 62.98-228.129 0c-9.517 0-17.833 10.72-17.833 19.003 0 9.534 8.316 20.213 17.833 20.213l263.802 0 254.31 248.341zM492.824 64.431l-92.704 91.49-24.958-77.249 39.217-39.211 78.444 24.97zM742.373 495.783c-4.758 4.744-14.273 4.744-19.013 0l-281.657-275.692c-5.939-4.744-5.939-14.255 0-19.008 4.76-4.753 14.275-4.753 19.019 0l280.449 275.685c5.963 4.757 5.963 13.075 1.201 19.014l0 0 0 0 0 0 0 0zM116.112-42.528c-9.494 0-18.996 3.572-18.996 13.069l0 751.022c-1.186 17.828 10.699 14.252 23.756 14.252l65.357 0 0-24.953c0-9.513 10.688-17.828 21.389-17.828 9.517 0 21.405 8.316 21.405 17.828l0 24.953 97.44 0 0-24.953c0-9.513 10.685-17.828 21.389-17.828 9.517 0 21.405 8.316 21.405 17.828l0 24.953 89.123 0 0-24.953c0-9.513 10.688-17.828 21.394-17.828 9.527 0 21.4 8.316 21.4 17.828l0 24.953 89.129 0 0-24.953c0-9.513 10.702-17.828 21.398-17.828 9.511 0 21.398 8.316 21.398 17.828l0 24.953 74.849 0c9.516 0 15.459-4.739 15.459-14.252l0-123.59 54.679 53.469 0 70.119c0 39.216-29.714 67.729-70.138 67.729l-76.044 0 0 46.361c0 9.517-10.697 17.828-21.403 17.828-9.502 0-21.384-8.311-21.384-17.828l0-46.345-89.129 0 0 46.345c0 9.517-10.688 17.828-21.408 17.828-9.513 0-21.38-8.311-21.38-17.828l0-46.345-89.132 0 0 46.345c0 9.517-10.699 17.828-21.4 17.828-9.518 0-21.389-8.311-21.389-17.828l0-46.345-97.447 0 0 46.345c0 9.517-10.697 17.828-21.4 17.828-9.516 0-21.386-8.311-21.386-17.828l0-46.345-64.174 0c-53.471 0-79.613-28.511-79.613-67.729l0-749.833c0-39.197 35.641-67.733 76.06-67.733l589.416 0c40.402 0 70.115 28.537 70.115 67.733l0 259.061-54.669-53.469 0-206.753c0-9.525-5.944-13.083-15.445-13.083M583.125 586.087l-355.294 0c-9.516 0-16.627-11.871-16.627-20.184 0-9.513 7.13-20.203 16.627-20.203l355.294 0c9.53 0 16.641 11.889 16.641 20.203 0 8.313-7.125 20.184-16.641 20.184l0 0 0 0 0 0 0 0zM583.125 449.439l-355.294 0c-9.516 0-16.627-11.871-16.627-20.198 0-9.516 7.13-20.184 16.627-20.184l355.294 0c9.53 0 16.641 11.885 16.641 20.184 0 8.328-7.125 20.198-16.641 20.198l0 0 0 0 0 0 0 0z"
                   horiz-adv-x="1024"/>


            <glyph glyph-name="jiaoyixulie" unicode="&#59044;"
                   d="M213.333333 597.333333H128a42.666667 42.666667 0 0 0 0 85.333334h85.333333a42.666667 42.666667 0 0 0 0-85.333334zM896 597.333333H384a42.666667 42.666667 0 0 0 0 85.333334h512a42.666667 42.666667 0 0 0 0-85.333334zM213.333333 341.333333H128a42.666667 42.666667 0 0 0 0 85.333334h85.333333a42.666667 42.666667 0 0 0 0-85.333334zM896 341.333333H384a42.666667 42.666667 0 0 0 0 85.333334h512a42.666667 42.666667 0 0 0 0-85.333334zM213.333333 85.333333H128a42.666667 42.666667 0 0 0 0 85.333334h85.333333a42.666667 42.666667 0 0 0 0-85.333334zM896 85.333333H384a42.666667 42.666667 0 0 0 0 85.333334h512a42.666667 42.666667 0 0 0 0-85.333334z"
                   horiz-adv-x="1024"/>


            <glyph glyph-name="jiaoseleixing" unicode="&#58982;"
                   d="M491.6 366.8c-112 0-202.9 90.8-202.9 202.9s90.8 202.9 202.9 202.9c112 0 202.9-90.8 202.9-202.9s-90.9-202.9-202.9-202.9m0 463.7c-69.2 0-135.5-27.4-184.5-76.4-48.9-48.9-76.4-115.3-76.4-184.5 0-97.5 54.2-181.7 133.6-226.4C219.3 291.1 115 153.4 115-9.7c0-10 2.2-19.2 2.9-29.1h0.6c1.5-14.4 13.7-25.3 28.2-25.3s26.6 10.9 28.2 25.3h0.9c-0.8 9.8-2.9 19.1-2.9 29.1 0 84.5 33.5 165.6 93.3 225.4C325.9 275.4 407 309 491.5 309l29 2.9c130.1 14.6 231.7 123.8 231.7 257.8 0 143.9-116.6 260.6-260.6 260.8M889.3 86c-1.7 0.5-3.4 1-5.2 1H563.3c-11.9 0-21.6-9.7-21.6-21.6 0-11.9 9.7-21.6 21.6-21.6h271.5l-73.1-71.6c-4-3.9-6.2-9.3-6.2-14.9s2.3-11 6.2-14.9c8.4-8.3 21.9-8.3 30.3 0l109.5 107.8c4 4 6.3 9.4 6.3 15.1 0 5.7-2.3 11.1-6.3 15.1-3.4 3.1-7.7 5.1-12.2 5.6m-330.1 67.1c1.8-0.5 3.7-0.7 5.5-0.7h322.5c8-0.7 15.6 3.2 19.8 10 4.2 6.8 4.2 15.4 0 22.2-4.2 6.8-11.9 10.7-19.8 10h-273l73.4 72.7c6.2 6.2 8.1 15.5 4.7 23.5-3.3 8.1-11.2 13.4-19.9 13.4-5.7 0-11.1-2.3-15.2-6.3L547.3 189c-4-4-6.3-9.5-6.3-15.2 0-5.7 2.3-11.1 6.3-15.2 3.3-3 7.5-5 11.9-5.5"
                   horiz-adv-x="1024"/>


            <glyph glyph-name="gongnengjiaosequanxianguanli" unicode="&#58946;"
                   d="M339.84 428.16h-192A119.68 119.68 0 0 0 29.44 547.84v192A119.68 119.68 0 0 0 149.12 858.24h192a120.32 120.32 0 0 0 119.04-119.68v-192a120.32 120.32 0 0 0-120.32-118.4z m-192 350.08a39.68 39.68 0 0 1-39.68-39.68v-192a39.68 39.68 0 0 1 39.68-39.68h192a40.32 40.32 0 0 1 40.32 39.68v192a40.32 40.32 0 0 1-40.32 39.68zM339.84-90.24h-192a119.68 119.68 0 0 0-118.4 119.68v192a119.68 119.68 0 0 0 119.68 118.4h192a120.32 120.32 0 0 0 120.32-119.68v-192a120.32 120.32 0 0 0-121.6-118.4z m-192 350.08a39.68 39.68 0 0 1-39.68-39.68v-192a39.68 39.68 0 0 1 39.68-39.68h192a40.32 40.32 0 0 1 40.32 39.68v192a40.32 40.32 0 0 1-40.32 39.68zM874.24 428.16h-192A120.32 120.32 0 0 0 563.2 547.84v192A120.32 120.32 0 0 0 683.52 858.24h192a119.68 119.68 0 0 0 119.68-119.68v-192a119.68 119.68 0 0 0-120.96-118.4z m-192 350.08a39.68 39.68 0 0 1-39.68-39.68v-192a39.68 39.68 0 0 1 39.68-39.68h192a39.68 39.68 0 0 1 39.68 39.68v192a39.68 39.68 0 0 1-39.68 39.68zM964.48 234.24H616.96a30.08 30.08 0 0 0 0 60.16h347.52a30.08 30.08 0 0 0 0-60.16zM964.48 106.24H616.96a30.08 30.08 0 0 0 0 60.16h347.52a30.08 30.08 0 0 0 0-60.16zM964.48-21.12H616.96a30.08 30.08 0 0 0 0 60.16h347.52a30.08 30.08 0 0 0 0-60.16zM899.2 200.96a30.08 30.08 0 0 0-30.08 30.08v64a30.08 30.08 0 1 0 60.16 0v-64a30.08 30.08 0 0 0-30.08-30.08zM687.36 72.96a30.08 30.08 0 0 0-30.08 30.08v64a30.08 30.08 0 0 0 60.16 0v-64a30.08 30.08 0 0 0-30.08-30.08zM899.2-54.4a30.08 30.08 0 0 0-30.08 30.08v64a30.08 30.08 0 1 0 60.16 0v-64a30.08 30.08 0 0 0-30.08-30.08z"
                   horiz-adv-x="1024"/>


            <glyph glyph-name="yonghuguanli_huaban" unicode="&#58925;"
                   d="M767.23 413.39c35.1 31.02 57.35 75.93 57.35 126 0 86.84-65.08 158.94-151.38 167.72-17.47 1.77-33.28-11.03-35.08-28.61-1.78-17.58 11.03-33.28 28.61-35.06 53.5-5.45 93.84-50.17 93.84-104.05 0-53.31-39.88-97.98-92.75-103.92-11.64-1.3-20.63-8.96-25.12-18.91-0.04-0.08-0.08-0.15-0.12-0.22-1.24-2.8-1.94-5.7-2.33-8.82-0.2-1.16-0.82-2.15-0.88-3.35-0.05-0.89 0.35-1.66 0.37-2.53 0.03-0.53-0.19-1-0.13-1.53 0.09-0.8 0.53-1.44 0.68-2.21 2.18-14.73 13.84-26.58 29.28-27.44 119.3-6.59 216.69-101.45 226.55-220.66 1.38-16.72 15.38-29.36 31.86-29.36 0.88 0 1.77 0.03 2.67 0.11 17.61 1.45 30.7 16.91 29.25 34.53-9.75 117.84-87.27 216.63-192.67 258.31zM536.12 396.89c44.15 35.34 72.55 89.57 72.55 150.39 0 106.25-86.44 192.69-192.67 192.69s-192.67-86.44-192.67-192.69c0-60.81 28.4-115.05 72.55-150.39C170 350.63 75.68 234.45 64.11 94.67c-1.45-17.61 11.64-33.08 29.25-34.53 18.06-1.56 33.08 11.66 34.53 29.25C140.19 238.11 266.75 354.61 416 354.61s275.81-116.5 288.11-265.22c1.38-16.72 15.38-29.36 31.86-29.36 0.88 0 1.77 0.03 2.67 0.11 17.61 1.45 30.7 16.92 29.25 34.53C756.32 234.45 662 350.63 536.12 396.89zM287.33 547.28c0 70.95 57.72 128.69 128.67 128.69s128.67-57.73 128.67-128.69S486.95 418.61 416 418.61s-128.67 57.72-128.67 128.67z"
                   horiz-adv-x="1024"/>


            <glyph glyph-name="jichupeizhi" unicode="&#58926;"
                   d="M595.590747 162.166596a17.049549 17.049549 0 0 0-17.083683 16.725283l-0.494931 35.106028a16.895949 16.895949 0 0 0 17.083682 16.725283h411.936897c9.284239 0 16.844749-7.441044 16.964216-16.725283v-35.123094a16.861816 16.861816 0 0 0-16.964216-16.725283c-6.195181 0.1024-143.342503 0.1024-411.441965 0z m-0.819198-153.855538a17.049549 17.049549 0 0 0-17.083682 16.725283l0.341332 35.071895a16.895949 16.895949 0 0 0 17.066616 16.725283h411.936897c9.284239 0 16.844749-7.441044 16.964216-16.725283l-0.341332-34.952429a17.049549 17.049549 0 0 0-16.947149-16.844749H594.771549zM595.112881-128a17.049549 17.049549 0 0 0-17.100748 16.725283v34.59403a16.895949 16.895949 0 0 0 17.083682 16.725283h411.936897c9.284239 0 16.844749-7.441044 16.964216-16.725283v-34.474564c-0.119466-9.284239-7.679977-16.725283-16.964216-16.844749H595.112881z m-91.391725 297.91484c-119.978307 0-217.667614 96.085045-217.667614 214.20309s97.569841 214.203091 217.667614 214.203091c119.978307 0 217.667614-96.085045 217.667613-214.203091 0-25.002592-4.33492-49.783317-12.987694-73.181647h-83.711749a136.959589 136.959589 0 0 1 21.299136 73.181647c0 77.021636-63.880342 139.792647-142.267306 139.792648-78.250432 0-142.130774-62.771012-142.130774-139.792648 0-77.141102 63.760875-139.912114 142.130774-139.912113v-74.290977zM511.998464-76.800154v-34.474563c-0.119466-9.796237-7.321578-16.605817-17.220215-16.605817h-85.281877c-33.791899-0.375466-49.441985 34.474563-51.302247 68.164062l-17.407947 68.266462c-31.044174 12.987694-60.415819 28.023383-87.551738 47.95719l-71.04832-28.620714c-30.207909-15.359954-67.105932-4.710386-84.445613 24.40526L8.584508 203.689672a62.105414 62.105414 0 0 0 20.684738 84.20668l60.927817 46.421194a371.318353 371.318353 0 0 0 0 99.430102l-60.808351 46.438261a62.003014 62.003014 0 0 0-20.804204 83.831215l89.036532 151.671012a64.34114 64.34114 0 0 0 84.309081 24.524726l71.20192-28.603647a409.649971 409.649971 0 0 0 87.53467 49.527318l10.410636 75.024841A63.044078 63.044078 0 0 0 414.684623 895.996928h177.919466c34.184431 0 62.037147-26.128988 63.658476-59.681954l10.393568-75.161375a419.019543 419.019543 0 0 0 87.654137-49.527318l71.20192 28.467115a64.528873 64.528873 0 0 0 84.309081-24.388194l88.780533-151.551545a62.088347 62.088347 0 0 0-20.565271-84.206681 1143.036571 1143.036571 0 0 0-56.541697-45.055865c0-21.964734 0.409599-61.781148 1.211729-119.500441h-86.596007l-0.95573 149.844884 92.876521 70.689921-79.359762 135.457727-107.485544-45.448397-17.578614 14.745556a338.123786 338.123786 0 0 1-104.259954 58.931023l-21.418602 7.679977-15.837819 114.397523h-156.87633l-15.854885-114.397523-21.418603-7.679977a343.056037 343.056037 0 0 1-104.37942-59.05049l-17.459148-14.506623-108.338875 43.588136-78.489364-133.460933 92.859455-70.706988-4.095988-22.169533a325.801689 325.801689 0 0 1-5.683183-59.05049c0.119466-19.831407 1.979727-39.765214 5.563717-59.204089l3.976521-22.152467-92.739988-70.706988 79.615761-135.457727 97.689307 47.80359 153.019274-84.906412L426.665387-59.716472c43.946535 0.085333 66.6622 0.085333 68.112862 0C496.962776-59.904204 511.998464-68.198579 511.998464-76.800154z"
                   horiz-adv-x="1024"/>


            <glyph glyph-name="trash-outline" unicode="&#60045;"
                   d="M696-64H328c-51.8 0-93 40.4-96 94.2L192 670c-1.2 17.6 12.4 32.8 30 34 17.6 1.2 32.8-12.4 34-30l40-640v-0.4c1-20.2 14-33.6 32-33.6h368c18 0 30.8 13.6 32 34l40 640c1.2 17.6 16.4 31 34 30 17.6-1.2 31-16.2 30-34l-40-640c-3.4-54.4-43.8-94-96-94zM864 640H160c-17.6 0-32 14.4-32 32s14.4 32 32 32h704c17.6 0 32-14.4 32-32s-14.4-32-32-32zM640 640c-17.6 0-32 14.4-32 32V752.2c0 8.6-7.2 15.8-15.8 15.8h-160.4c-8.6 0-15.8-7.2-15.8-16v-80c0-17.6-14.4-32-32-32s-32 14.4-32 32V752c-0.2 44 35.6 79.8 79.6 80h160.6c43.8 0 79.6-35.6 79.8-79.6V672c0-17.6-14.4-32-32-32zM512 64c-17.6 0-32 14.4-32 32V544c0 17.6 14.4 32 32 32s32-14.4 32-32v-448c0-17.6-14.4-32-32-32zM384 64c-17.2 0-31.4 13.6-32 30.8l-16 448c-0.6 17.6 13.2 32.4 30.8 33.2 17.8 0.6 32.4-13.2 33.2-30.8l16-448c0.6-17.6-13.2-32.4-30.8-33.2h-1.2zM640 64h-1.2c-17.6 0.6-31.4 15.4-30.8 33.2l16 448c0.6 17.6 15.4 31.4 33.2 30.8 17.6-0.6 31.4-15.4 30.8-33.2l-16-448c-0.6-17.2-14.8-30.8-32-30.8z"
                   horiz-adv-x="1024"/>


        </font>
</defs>
</svg>
